<svg width="97" height="36" viewBox="0 0 97 36" fill="none" xmlns="http://www.w3.org/2000/svg">
<path fill-rule="evenodd" clip-rule="evenodd" d="M41.92 8.39999C43.52 8.39999 45.0067 8.60666 46.38 9.01999C47.7533 9.43333 48.9333 10.0667 49.92 10.92C50.9067 11.7733 51.68 12.8467 52.24 14.14C52.8 15.4333 53.08 16.9733 53.08 18.76C53.08 20.4667 52.84 21.96 52.36 23.24C51.88 24.52 51.2 25.5933 50.32 26.46C49.44 27.3267 48.38 27.9733 47.14 28.4C45.9 28.8267 44.52 29.04 43 29.04C41.8533 29.04 40.7867 28.8667 39.8 28.52V35.16C39.5333 35.24 39.1067 35.3267 38.52 35.42C37.9333 35.5133 37.3333 35.56 36.72 35.56C36.1333 35.56 35.6067 35.52 35.14 35.44C34.6733 35.36 34.28 35.2 33.96 34.96C33.64 34.72 33.4 34.3933 33.24 33.98C33.08 33.5667 33 33.0267 33 32.36V13.16C33 12.44 33.1533 11.8533 33.46 11.4C33.7667 10.9467 34.1867 10.5333 34.72 10.16C35.5467 9.62666 36.5733 9.2 37.8 8.87999C39.0267 8.55999 40.4 8.39999 41.92 8.39999ZM41.9999 23.6802C44.7466 23.6802 46.1199 22.0402 46.1199 18.7602C46.1199 17.0535 45.7799 15.7869 45.0999 14.9602C44.4199 14.1335 43.4399 13.7202 42.1599 13.7202C41.6532 13.7202 41.1999 13.7802 40.7999 13.9002C40.3999 14.0202 40.0532 14.1602 39.7599 14.3202V23.1202C40.0799 23.2802 40.4266 23.4135 40.7999 23.5202C41.1732 23.6269 41.5732 23.6802 41.9999 23.6802ZM64.8001 24.1199C65.2534 24.1199 65.7534 24.0732 66.3001 23.9799C66.8467 23.8866 67.2534 23.7599 67.5201 23.5999V20.3999L64.6401 20.6399C63.8934 20.6932 63.2801 20.8532 62.8001 21.1199C62.3201 21.3866 62.0801 21.7866 62.0801 22.3199C62.0801 22.8532 62.2867 23.2866 62.7001 23.6199C63.1134 23.9532 63.8134 24.1199 64.8001 24.1199ZM64.48 8.3999C65.92 8.3999 67.2333 8.54657 68.42 8.8399C69.6067 9.13324 70.62 9.5799 71.46 10.1799C72.3 10.7799 72.9467 11.5399 73.4 12.4599C73.8534 13.3799 74.08 14.4666 74.08 15.7199V24.6799C74.08 25.3732 73.8867 25.9399 73.5 26.3799C73.1133 26.8199 72.6534 27.1999 72.12 27.5199C70.3867 28.5599 67.9467 29.0799 64.8 29.0799C63.3867 29.0799 62.1134 28.9466 60.98 28.6799C59.8467 28.4132 58.8734 28.0132 58.06 27.4799C57.2467 26.9466 56.62 26.2666 56.18 25.4399C55.74 24.6132 55.52 23.6532 55.52 22.5599C55.52 20.7199 56.0667 19.3066 57.16 18.3199C58.2534 17.3332 59.9467 16.7199 62.24 16.4799L67.48 15.9199V15.6399C67.48 14.8666 67.14 14.3132 66.46 13.9799C65.78 13.6466 64.8 13.4799 63.52 13.4799C62.5067 13.4799 61.52 13.5866 60.56 13.7999C59.6 14.0132 58.7334 14.2799 57.96 14.5999C57.6134 14.3599 57.32 13.9932 57.08 13.4999C56.84 13.0066 56.72 12.4932 56.72 11.9599C56.72 11.2666 56.8867 10.7132 57.22 10.2999C57.5534 9.88657 58.0667 9.53324 58.76 9.2399C59.5334 8.94657 60.4467 8.73324 61.5 8.5999C62.5534 8.46657 63.5467 8.3999 64.48 8.3999ZM83.1599 28.4C82.8665 28.4533 82.4332 28.5267 81.8599 28.62C81.2865 28.7133 80.7065 28.76 80.1199 28.76C79.5332 28.76 79.0065 28.72 78.5399 28.64C78.0732 28.56 77.6799 28.4 77.3599 28.16C77.0399 27.92 76.7932 27.5933 76.6199 27.18C76.4465 26.7667 76.3599 26.2267 76.3599 25.56V2.36C76.6532 2.30667 77.0865 2.23333 77.6599 2.14C78.2332 2.04667 78.8132 2 79.3999 2C79.9865 2 80.5132 2.04 80.9799 2.12C81.4465 2.2 81.8399 2.36 82.1599 2.6C82.4799 2.84 82.7265 3.16666 82.8999 3.58C83.0732 3.99334 83.1599 4.53333 83.1599 5.2V28.4ZM85 3.6C85 2.58666 85.34 1.73334 86.02 1.04C86.7 0.346663 87.6 0 88.72 0C89.84 0 90.74 0.346663 91.42 1.04C92.1 1.73334 92.44 2.58666 92.44 3.6C92.44 4.61334 92.1 5.46666 91.42 6.16C90.74 6.85334 89.84 7.2 88.72 7.2C87.6 7.2 86.7 6.85334 86.02 6.16C85.34 5.46666 85 4.61334 85 3.6ZM92.1198 28.3999C91.8265 28.4533 91.3932 28.5266 90.8198 28.6199C90.2465 28.7133 89.6665 28.7599 89.0798 28.7599C88.4932 28.7599 87.9665 28.7199 87.4998 28.6399C87.0332 28.5599 86.6398 28.3999 86.3198 28.1599C85.9998 27.9199 85.7532 27.5933 85.5798 27.1799C85.4065 26.7666 85.3198 26.2266 85.3198 25.5599V9.27992C85.6132 9.22659 86.0465 9.15326 86.6198 9.05992C87.1932 8.96659 87.7732 8.91992 88.3598 8.91992C88.9465 8.91992 89.4732 8.95992 89.9398 9.03992C90.4065 9.11992 90.7998 9.27992 91.1198 9.51992C91.4398 9.75992 91.6865 10.0866 91.8598 10.4999C92.0332 10.9133 92.1198 11.4533 92.1198 12.1199V28.3999Z" fill="white"/>
<path fill-rule="evenodd" clip-rule="evenodd" d="M0 11L5 6L10 11L5 16L0 11Z" fill="white"/>
<path fill-rule="evenodd" clip-rule="evenodd" d="M15 16L20 11L25 16L20 21L15 16Z" fill="white"/>
<path fill-rule="evenodd" clip-rule="evenodd" d="M10 11L15 6L20 11L15 16L10 11Z" fill="white"/>
<path fill-rule="evenodd" clip-rule="evenodd" d="M15 16L20 11L25 16L20 21L15 16Z" fill="white"/>
<path fill-rule="evenodd" clip-rule="evenodd" d="M10 11L15 6L20 11L15 16L10 11Z" fill="white"/>
<path fill-rule="evenodd" clip-rule="evenodd" d="M0 21L5 16L10 21L5 26L0 21Z" fill="white"/>
<path fill-rule="evenodd" clip-rule="evenodd" d="M0 31L5 26L10 31L5 36L0 31Z" fill="white"/>
</svg>
