<svg width="408" height="408" viewBox="0 0 408 408" fill="none" xmlns="http://www.w3.org/2000/svg">
<rect width="136" height="136" fill="black" fill-opacity="0" transform="scale(3)"/>
<rect width="136" height="136" fill="black" fill-opacity="0" transform="scale(3)"/>
<path fill-rule="evenodd" clip-rule="evenodd" d="M204 408C316.666 408 408 316.666 408 204C408 91.3337 316.666 0 204 0C91.3345 0 0 91.3337 0 204C0 316.666 91.3345 408 204 408ZM204 382.5C302.583 382.5 382.5 302.583 382.5 204C382.5 105.417 302.583 25.5 204 25.5C105.417 25.5 25.5 105.417 25.5 204C25.5 302.583 105.417 382.5 204 382.5Z" fill="url(#paint0_linear)"/>
<rect width="73.6667" height="34.0126" fill="black" fill-opacity="0" transform="translate(96.9932 227.764) scale(3) rotate(-45)"/>
<rect x="96.9946" y="227.763" width="25.5" height="102.038" rx="4.25" transform="rotate(-45 96.9946 227.763)" fill="url(#paint1_linear)"/>
<rect x="169.144" y="299.916" width="25.5" height="221" rx="4.25" transform="rotate(-135 169.144 299.916)" fill="url(#paint2_linear)"/>
<defs>
<linearGradient id="paint0_linear" x1="204" y1="0" x2="204" y2="408" gradientUnits="userSpaceOnUse">
<stop stop-color="white"/>
<stop offset="1" stop-color="white" stop-opacity="0.28"/>
</linearGradient>
<linearGradient id="paint1_linear" x1="303.734" y1="683.29" x2="303.734" y2="785.328" gradientUnits="userSpaceOnUse">
<stop stop-color="white"/>
<stop offset="1" stop-color="white" stop-opacity="0.28"/>
</linearGradient>
<linearGradient id="paint2_linear" x1="520.182" y1="899.747" x2="520.182" y2="1120.75" gradientUnits="userSpaceOnUse">
<stop stop-color="white"/>
<stop offset="1" stop-color="white" stop-opacity="0.28"/>
</linearGradient>
</defs>
</svg>
